<svg xmlns="http://www.w3.org/2000/svg" width="512" height="512" viewBox="0 0 512 512"><g fill="none" fill-rule="evenodd"><path fill="#DF1696" d="M256 455.909c29.873 0 58.298-5.892 84.036-16.435a12.61 12.61 0 0 1 1.757-.724c.104 0 .207 0 .207-.103a33.292 33.292 0 0 1 11.577-2.068c4.445 0 8.683.827 12.507 2.481L452.911 471l-22.844-91.375c0-5.478 1.55-10.647 4.032-15.091.826-1.344 1.653-2.688 2.584-3.825 21.603-32.353 34.11-70.805 34.11-112.048C471 133.925 374.767 41 256 41 137.233 41 41 133.925 41 248.454c0 114.633 96.233 207.455 215 207.455z"/><g fill="#FFF"><path d="M125.683 342.06l-13.143-7.588L258.964 80.868l13.143 7.589z"/><path d="M109.531 314.211h292.846v15.177H109.531z"/><path d="M261.804 407.31l-146.477-84.572 7.589-13.143 146.477 84.572zM389.048 186.895L242.57 102.323l7.59-13.144 146.476 84.572z"/><path d="M122.956 186.837l-7.59-13.143 146.478-84.572 7.589 13.143z"/><path d="M386.349 342.064L239.925 88.46l13.144-7.588 146.424 253.603zM121.143 163.629h15.177v169.143h-15.177z"/><path d="M375.68 163.629h15.177v169.143H375.68z"/><path d="M259.221 400.885l-6.628-11.48 127.395-73.556 6.629 11.481z"/><path d="M410.971 337.709c-8.777 15.268-28.342 20.48-43.611 11.702-15.269-8.777-20.48-28.342-11.703-43.611 8.777-15.269 28.343-20.48 43.612-11.703 15.36 8.869 20.571 28.343 11.702 43.612M156.251 190.6c-8.777 15.269-28.342 20.48-43.611 11.703-15.269-8.777-20.48-28.343-11.703-43.612 8.777-15.268 28.343-20.48 43.612-11.702 15.268 8.868 20.48 28.342 11.702 43.611M101.03 337.709c-8.778-15.269-3.566-34.743 11.702-43.612 15.269-8.777 34.743-3.566 43.612 11.703 8.777 15.269 3.566 34.743-11.703 43.611-15.36 8.778-34.834 3.566-43.611-11.702M355.749 190.6c-8.778-15.269-3.566-34.743 11.702-43.611 15.269-8.778 34.743-3.566 43.612 11.702 8.777 15.269 3.566 34.743-11.703 43.612-15.269 8.777-34.834 3.566-43.611-11.703M256 427.217c-17.646 0-31.909-14.263-31.909-31.908 0-17.646 14.263-31.909 31.909-31.909s31.909 14.263 31.909 31.909c0 17.554-14.263 31.908-31.909 31.908M256 133c-17.646 0-31.909-14.263-31.909-31.909 0-17.645 14.263-31.908 31.909-31.908s31.909 14.263 31.909 31.908C287.909 118.737 273.646 133 256 133"/></g></g></svg>